P2
3 3
255
124 125 123
124 125	123
124 125	123


